<svg xmlns="http://www.w3.org/2000/svg">
  <symbol id="slash_1" viewbox="0 0 163 16"><path fill="#64513D" d="M72.3 16l-3.6-2L77 0l3.5 2-8.2 14zM55 14l8.2-14 3.6 2-8.2 14-3.6-2zm-13.8 0l8.3-14L53 2l-8.3 14-3.6-2zm-13.7 0l8.2-14 3.6 2-8.2 14-3.6-2zm-13.7 0L22 0l3.6 2-8.3 14-3.5-2zM0 14L8.3 0l3.5 2-8.2 14L0 14z"/><path fill="#FF9F1A" d="M154.7 16l-3.5-2 8.2-14 3.6 2-8.3 14zm-17.3-2l8.3-14 3.5 2-8.2 14-3.6-2zm-13.7 0l8.2-14 3.6 2-8.2 14-3.6-2zm-13.8 0l8.3-14 3.6 2-8.3 14-3.6-2zm-13.7 0l8.2-14 3.6 2-8.2 14-3.6-2zm-13.7 0l8.2-14 3.6 2L86 16l-3.5-2z"/></symbol>
  <symbol id="slash_2" viewbox="0 0 32 183"><path fill="currentColor" d="M.004 140.319l4.034-6.932 27.953 16.008-4.035 6.931L.004 140.319zm0-26.679l4.034-6.932 27.953 16.008-4.035 6.931L.004 113.64zm0-26.68l4.034-6.931 27.953 16.007-4.035 6.932L.004 86.96zm0-26.679l4.034-6.932 27.953 16.008-4.035 6.931L.004 60.281zm0-26.679l4.034-6.932 27.953 16.008-4.035 6.931L.004 33.602zm0-26.68L4.038-.009l27.953 16.007-4.035 6.932L.004 6.922zm31.987 169.152l-4.035 6.932L.004 166.998l4.034-6.931 27.953 16.007z"/></symbol>
  <symbol id="slash_3" viewbox="0 0 163 16"><path fill="#ffffff" d="M72.3 16l-3.6-2L77 0l3.5 2-8.2 14zM55 14l8.2-14 3.6 2-8.2 14-3.6-2zm-13.8 0l8.3-14L53 2l-8.3 14-3.6-2zm-13.7 0l8.2-14 3.6 2-8.2 14-3.6-2zm-13.7 0L22 0l3.6 2-8.3 14-3.5-2zM0 14L8.3 0l3.5 2-8.2 14L0 14z"/><path fill="#FF9F1A" d="M154.7 16l-3.5-2 8.2-14 3.6 2-8.3 14zm-17.3-2l8.3-14 3.5 2-8.2 14-3.6-2zm-13.7 0l8.2-14 3.6 2-8.2 14-3.6-2zm-13.8 0l8.3-14 3.6 2-8.3 14-3.6-2zm-13.7 0l8.2-14 3.6 2-8.2 14-3.6-2zm-13.7 0l8.2-14 3.6 2L86 16l-3.5-2z"/></symbol>
  <symbol id="plus" viewBox="0 0 448 512"><path fill="currentColor" d="M416 208H272V64a32 32 0 0 0-32-32h-32a32 32 0 0 0-32 32v144H32a32 32 0 0 0-32 32v32a32 32 0 0 0 32 32h144v144a32 32 0 0 0 32 32h32a32 32 0 0 0 32-32V304h144a32 32 0 0 0 32-32v-32a32 32 0 0 0-32-32z"/></symbol>
  <symbol id="double_right" viewBox="0 0 448 512"><path fill="currentColor" d="M224.3 273l-136 136a23.9 23.9 0 0 1-33.9 0l-22.6-22.6a23.9 23.9 0 0 1 0-33.9l96.4-96.4-96.4-96.4a23.9 23.9 0 0 1 0-33.9L54.3 103a23.9 23.9 0 0 1 33.9 0l136 136a24 24 0 0 1 .1 34zm192-34l-136-136a23.9 23.9 0 0 0-33.9 0l-22.6 22.6a23.9 23.9 0 0 0 0 33.9l96.4 96.4-96.4 96.4a23.9 23.9 0 0 0 0 33.9l22.6 22.6a23.9 23.9 0 0 0 33.9 0l136-136a23.8 23.8 0 0 0 0-33.8z"/></symbol>
  <symbol id="serv_1" viewBox="0 0 512 512"><path fill="currentColor" d="M387 260c-1 0-6 0-11 3-7 5-10 13-10 24v194h-15V287c0-21 10-32 18-37s17-5 18-5h125v15H387zm-56 235H182c-5 0-10-5-10-10V96c0-6 4-10 10-10h7V17h37v69h12V17h37v69h12V17h37v69h7c6 0 10 4 10 10v389c0 5-4 10-10 10zM212 32h-8v54h8V32zm49 0h-8v54h8V32zm48 0h-8v54h8V32zm17 69H187v379h139V101zm-95 40c4 0 7 3 7 7v64c0 5-3 8-7 8-5 0-8-4-8-8v-64c0-4 4-7 8-7zm0 142c4 0 7 3 7 7v168c0 4-3 7-7 7-5 0-8-3-8-7V290c0-4 4-7 8-7zm1-12c-5 0-8-4-8-8v-19c0-4 3-8 7-8 5 0 8 4 8 8v19c0 4-3 8-7 8zm-86 16c0-12-3-20-10-24-5-3-11-3-11-3H0v-15h125c1 0 10 0 18 5s18 16 18 37v194h-15V287zM20 322l2-2h2c11 0 20 5 27 12 13 15 12 40 12 50-1 8-7 11-11 11-3 0-9 0-21-12-7-6-14-14-18-21-11-18 0-33 7-38zm6 30a96 96 0 0 0 22 25c1-13-1-27-8-35-4-4-8-6-13-7l-3 4c-2 4-1 9 2 13zm40 61l7 1c8 2 16 14 17 25 1 9-3 16-11 19l-8 2c-16 0-27-19-28-29 0-3 0-6 3-10 5-5 13-8 20-8zm5 32h2c1-1 3-1 3-5-1-6-5-12-7-12l-3-1c-3 0-7 2-8 4 1 5 7 14 13 14zm5-130c-2-8 0-15 0-15v-2l1-1c1-1 10-16 24-16 4 0 8 1 11 4 12 7 16 26 13 39-3 9-10 14-18 14l-8-1c-15-5-20-15-23-22zm15-4c1 6 6 10 12 12l4 1c1 0 2 0 3-4 3-8-1-20-6-23l-3-1c-4 0-9 5-11 8l1 7zm321 82l8-1c8 0 15 5 18 14 3 13-1 32-12 39-4 3-8 4-12 4-14 0-23-14-24-16l-1-1v-2s-2-7 1-15c2-7 7-17 22-22zm-9 33c3 4 7 8 11 8l4-1c5-3 8-15 6-23-1-4-3-4-4-4l-3 1c-7 2-11 7-13 12l-1 7zm0-91l-2-2-1-2c-4-9-6-27 12-37 11-6 30-13 41-13 6 0 11 2 13 6 1 1 3 5 0 11-4 9-19 41-46 41-6 0-11-2-17-4zm48-39c-8 1-22 5-31 11-5 2-8 6-8 11v4l8 2c15 0 27-19 31-28zm25 42l8 2c8 4 12 11 11 19-1 11-8 23-17 26l-7 1c-7 0-15-4-20-9-3-4-4-7-3-10 1-10 12-29 28-29zm-5 33h2c2-1 7-7 7-12 1-4-1-5-2-6h-2c-6 0-12 10-13 15 1 1 4 3 8 3z"/></symbol>
  <symbol id="serv_2" viewBox="0 0 512 512"><path fill="currentColor" d="M172 398h-1A131 131 0 0 1 52 220l1-1L164 5c2-3 4-5 8-5 3 0 6 2 7 5l78 150a9 9 0 0 1-15 8L172 27 68 227a114 114 0 0 0 68 147c11 4 23 6 36 7a114 114 0 0 0 104-154l-20-38a9 9 0 0 1 15-8l20 39v1a131 131 0 0 1-77 169c-13 5-27 8-42 8zM401 372a69 69 0 0 1-63-94v-1l55-106c2-3 4-4 8-4 3 0 6 1 7 4l24 45a9 9 0 0 1-16 8l-15-30-48 91c-4 12-4 26 2 39a52 52 0 0 0 46 30c5 0 11-1 16-3 27-10 40-40 31-66l-20-38a9 9 0 0 1 16-8l19 38 1 1a69 69 0 0 1-63 93v1zM310 512h-1l-15-3c-26-10-39-38-29-63v-1l37-71c1-3 4-4 7-4h1c3 0 6 1 7 4l37 71v1a49 49 0 0 1-44 66zm-29-60a32 32 0 0 0 29 43l10-2c16-6 24-24 18-41l-28-55-29 55z"/></symbol>
  <symbol id="serv_3" viewBox="0 0 512 512"><path fill="currentColor" d="M386 267c-15 0-19 9-20 24v3c-1 4-4 6-6 7-3 3-8 7-8 23 1 27-8 49-8 49v1h-1c0 1-18 33-50 64a50 50 0 0 1-35 16l-16-2c-13-5-22-13-23-13v-1l-42-50a95 95 0 0 1-15-57c0-18-6-24-7-25l-1-1c-1-1-6-8-8-21v-1c0-12-16-15-18-16H0v-15h129c11 2 31 10 32 30 1 7 3 12 4 13 3 3 11 12 11 36 0 21 4 37 13 49l41 48c1 1 8 7 17 10 13 4 25 0 36-10 29-28 45-57 47-61 1-2 8-20 8-43-1-22 8-30 13-34v-1c1-4 2-13 6-21 4-7 12-16 29-16h126v15H386zm-66 60l2 1c1 0 8 6 8 14 0 4-2 9-8 14-3 2-9 2-12 2l-48 57-6 3-6-3-52-66-2-5v-42l-3-2c-7-5-8-10-8-13 1-9 8-14 11-16v-32l-3-2c-7-5-8-10-8-13 1-9 8-14 11-16v-31l-3-2c-7-5-8-10-8-14 1-8 8-13 11-15v-31l-3-1c-7-5-8-10-8-14 1-8 8-14 11-15V65c0-4 4-8 8-8s7 4 7 8v40l93 30V65c0-4 3-8 7-8s7 4 7 8v75h2l2 1c1 1 8 6 8 15 0 3-2 9-9 13l-3 2v30h2l2 1c1 1 8 7 8 15 0 4-2 9-9 14l-3 1v31l2 1 2 1c1 0 8 6 8 14 0 4-2 9-9 14l-3 1v32l2 1zm-16-176l-47-15-46-15v45l93 31v-46zm0 61l-47-15-46-15v47l93 30v-47zm0 62l-47-15-46-15v48l93 30v-48zm0 63l-47-15-46-15v35l45 57 48-57v-5zM46 400c18 0 36 12 43 17 6 5 5 11 4 12-1 4-4 9-21 14-9 3-20 4-28 4-21 0-28-17-30-25v-3l2-3c7-10 18-16 30-16zm-14 27c3 3 6 5 12 5a98 98 0 0 0 32-6c-6-4-18-11-30-11-7 0-12 2-16 7l2 5zm44-54l-8-2a32 32 0 0 1-23-37l1-1v-1c1-2 11-17 25-17 4 0 7 2 11 4 11 7 16 27 12 39-3 9-9 15-18 15zm-2-42l-3-1c-4 0-9 5-11 8v7c2 6 6 10 13 12l3 1c1 0 3 0 4-4 2-7-1-19-6-23zm66 56l7 1c8 2 16 14 17 25 0 9-4 16-11 19l-9 2c-15 0-26-19-27-29-1-3 0-6 3-10 5-5 13-8 20-8zm5 32h2c1-1 3-1 2-5 0-6-5-12-7-12l-2-1c-4 0-7 2-8 4 1 5 7 14 13 14zm242-20l8-1c9 0 15 5 18 14 4 13-1 32-12 39-4 3-8 4-12 4-14 0-23-15-24-16l-1-1v-2s-1-7 1-15c2-7 8-17 22-22zm-8 33c2 3 6 8 11 8l3-1c5-3 8-15 6-23-1-4-3-4-4-4l-3 1c-7 2-11 6-13 12v7zm13-106l-2-3 1-3c1-8 8-25 29-25 8 0 19 1 28 4 17 5 20 10 22 14 0 1 1 7-5 12-7 5-25 17-43 17-12 0-23-6-30-16zm30 1c12 0 24-7 30-11l-10-4-22-2c-6 0-10 2-12 6l-2 4c4 5 10 7 16 7zm54 39c3 0 5 0 8 2 8 3 12 10 11 19-1 11-8 22-17 25l-7 1c-7 0-15-3-20-8-3-4-3-8-3-10 1-10 12-29 28-29zm-5 32h2c3-1 7-6 7-12 1-4-1-5-2-5l-2-1c-6 0-12 10-13 15 1 1 4 3 8 3z"/></symbol>
  <symbol id="serv_4" viewBox="0 0 512 512"><path fill="currentColor" d="M344 208l-8-1a32 32 0 0 1-22-38v-1l1-1c1-2 10-16 24-16 4 0 8 1 11 3 11 8 16 27 12 40-2 9-9 14-18 14zm-2-41l-3-1c-4 0-9 5-11 8l1 7c1 6 6 9 12 12h4s2 0 3-3c2-8-1-20-6-23zm170 205L151 163v36l361 209v17L289 296v118l-4 12c-4 9-11 14-20 14l-6-7v56H136v-50H0v-14h136V258H99V89h37V23h15v123l94 54V23h14v186l15 8v-80c0-3 0-12 6-19s14-10 26-10h206v15H306c-5 0-12 0-15 4s-2 9-2 9v90l223 129v17zm-253 53h6c6 0 9-11 9-13V287l-15-9v147zm-108 50h93V270l-93-54v259zm-15-371h-23v139h23V104zm339 134c0 2 1 8-5 13-7 5-25 16-43 16-12 0-23-5-30-16l-2-2v-3c2-9 9-26 30-26 8 0 19 2 28 4 17 5 20 10 22 14zm-50-3c-6 0-10 2-12 6l-2 4c4 5 9 8 16 8 12 0 24-7 31-12l-11-3c-7-2-16-3-22-3zm5-89l3-1 11-1c13 0 24 7 33 20 7 11 10 24 11 29 2 5 0 8-2 10-1 2-4 4-9 4-12 0-32-12-42-21a29 29 0 0 1-6-38l1-2zm14 29c9 8 22 15 29 17-3-11-12-34-29-34l-4 1-1 4c-1 5 1 9 5 12zM335 355l7 1c8 3 16 14 17 25 1 9-3 16-11 20l-8 1c-16 0-27-19-28-29 0-2 0-6 3-10 5-4 13-8 20-8zm5 33l2-1c1 0 3-1 3-5-1-5-5-11-7-12h-3c-3 0-7 2-8 3 1 5 7 15 13 15zm0 42l3-1c11 0 24 10 30 21 3 9 2 17-3 24-5 6-11 9-19 9h1c-15 0-31-12-36-21-2-4-2-9 1-15 4-7 13-16 23-17zm12 38c2 0 5-1 7-3 1-2 2-5 0-9-3-6-11-12-16-12h-1c-7 1-12 9-12 11 3 5 13 13 22 13zm76-51l8-2c8 0 15 6 18 15 3 12-1 32-12 39-4 2-8 4-12 4-14 0-23-15-24-17l-1-1v-1c0-1-1-7 1-15 2-7 7-17 22-22zm-9 33c2 3 7 8 11 8l4-1c5-4 8-16 6-23-2-4-3-4-4-4l-3 1c-7 2-12 6-13 12l-1 7z"/></symbol>
  <symbol id="map_marker" viewBox="0 0 384 512"><path fill="currentColor" d="M172 502C27 291 0 269 0 192a192 192 0 1 1 384 0c0 77-27 99-172 310a24 24 0 0 1-40 0zm20-230a80 80 0 1 0 0-160 80 80 0 0 0 0 160z"/></symbol>
  <symbol id="mobile" viewBox="0 0 320 512"><path fill="currentColor" d="M272 0H48C22 0 0 22 0 48v416c0 27 22 48 48 48h224c27 0 48-21 48-48V48c0-26-21-48-48-48zM160 480a32 32 0 1 1 0-64 32 32 0 0 1 0 64zm112-108c0 7-5 12-12 12H60c-7 0-12-5-12-12V60c0-7 5-12 12-12h200c7 0 12 5 12 12v312z"/></symbol>
  <symbol id="envelope" viewBox="0 0 512 512"><path fill="currentColor" d="M502 191c4-3 10 0 10 5v204c0 27-21 48-48 48H48c-26 0-48-21-48-48V196c0-5 6-8 10-5l154 114c21 15 56 47 92 47s72-33 92-47l154-114zM256 320c23 0 57-29 73-41 133-97 143-105 174-129 6-5 9-12 9-19v-19c0-26-22-48-48-48H48C22 64 0 86 0 112v19c0 7 3 14 9 19 31 24 41 32 174 129 16 12 50 41 73 41z"/></symbol>
  <symbol id="facebook" viewBox="0 0 264 512"><path fill="currentColor" d="M216 85h48V4c-8-1-37-4-70-4C124 0 77 42 77 120v72H0v91h77v229h94V283h73l12-91h-85v-63c0-26 7-44 45-44z"/></symbol>
  <symbol id="twitter" viewBox="0 0 512 512"><path fill="currentColor" d="M459 152l1 13c0 139-106 299-299 299-59 0-115-17-161-47a217 217 0 0 0 156-44c-47-1-85-31-98-72l19 1c10 0 19-1 28-3-48-10-84-52-84-103v-2c14 8 30 13 47 14A105 105 0 0 1 36 67c51 64 129 106 216 110-2-8-2-16-2-24a105 105 0 0 1 181-72c24-4 47-13 67-25-8 24-25 45-46 58 21-3 41-8 60-17-14 21-32 40-53 55z"/></symbol>
  <symbol id="instagram" viewBox="0 0 448 512"><path fill="currentColor" d="M224 141a115 115 0 1 0 0 229 115 115 0 0 0 0-229zm0 190a75 75 0 1 1 0-150 75 75 0 0 1 0 150zm147-195a27 27 0 1 1-54 0 27 27 0 0 1 54 0zm76 28c-2-36-10-68-37-94-26-27-58-35-93-37-37-2-148-2-185 0-36 2-68 10-94 36S3 129 1 164c-2 37-2 148 0 185 2 36 10 68 37 94s58 35 94 36c37 3 148 3 185 0 35-1 67-9 93-36 27-26 35-58 37-94 2-37 2-147 0-184zm-48 224c-8 20-23 35-43 43-29 11-99 9-132 9s-103 2-132-9c-20-8-35-23-43-43-11-29-9-99-9-132s-2-103 9-132c8-20 23-35 43-43 30-11 100-9 132-9s103-2 132 9c20 8 35 23 43 43 12 29 9 99 9 132s3 103-9 132z"/></symbol>
  <symbol id="thumbs_up" viewBox="0 0 512 512"><path fill="currentColor" d="M104 224H24c-13 0-24 11-24 24v240c0 13 11 24 24 24h80c13 0 24-11 24-24V248c0-13-11-24-24-24zM64 472a24 24 0 1 1 0-48 24 24 0 0 1 0 48zM384 81c0 43-26 67-33 95h101c34 0 60 28 60 58 0 18-8 37-19 49h-1c10 24 9 56-9 80 9 26 0 58-16 75 4 17 2 32-6 44-21 30-71 30-114 30h-3c-48 0-88-18-120-32-16-7-36-16-52-16-7 0-12-5-12-12V238c0-3 1-6 4-8 39-39 56-81 89-113 14-15 20-38 25-59 5-19 14-58 34-58 24 0 72 8 72 81z"/></symbol>
  <symbol id="caret" viewBox="0 0 320 512"><path fill="currentColor" d="M143 352L7 216c-9-9-9-24 0-34l23-22c9-10 24-10 34 0l96 96 96-96c10-10 25-10 34 0l23 22c9 10 9 25 0 34L177 352c-9 10-25 10-34 0z"/></symbol>
  <symbol id="zoom" viewBox="0 0 24 24"><path fill="currentColor" d="M0.793 21.168l1.414 1.414 4.385-4.385-1.377-1.451-4.422 4.422zM14.125 1c-4.901 0-8.875 3.974-8.875 8.875 0 1.919 0.617 3.69 1.652 5.143l1.67 1.76c1.521 1.227 3.446 1.973 5.553 1.973 4.901 0 8.875-3.974 8.875-8.875s-3.974-8.876-8.875-8.876zM14.125 16.75c-3.791 0-6.875-3.084-6.875-6.875s3.084-6.875 6.875-6.875 6.875 3.084 6.875 6.875-3.084 6.875-6.875 6.875zM15.022 7h-2v2h-2v2h2v2h2v-2h2v-2h-2v-2z"></path></symbol>











</svg>
